<svg width="1907" height="528" viewBox="0 0 1907 528" fill="none" xmlns="http://www.w3.org/2000/svg">
<path d="M664.671 179.259V417.003H606.443V179.259H664.671ZM602.488 117.077C602.488 108.434 605.418 101.256 611.277 95.5433C617.283 89.8304 625.34 86.974 635.447 86.974C645.555 86.974 653.538 89.8304 659.397 95.5433C665.403 101.256 668.406 108.434 668.406 117.077C668.406 125.573 665.403 132.677 659.397 138.39C653.538 144.103 645.555 146.959 635.447 146.959C625.34 146.959 617.283 144.103 611.277 138.39C605.418 132.677 602.488 125.573 602.488 117.077ZM900.868 333.947C900.868 327.794 899.916 322.301 898.012 317.467C896.254 312.487 892.958 308.019 888.124 304.064C883.437 299.962 876.771 296.007 868.129 292.199C859.633 288.244 848.646 284.142 835.17 279.894C820.229 275.206 806.312 269.933 793.422 264.074C780.531 258.214 769.179 251.403 759.364 243.639C749.696 235.875 742.152 226.94 736.732 216.832C731.312 206.578 728.603 194.713 728.603 181.237C728.603 168.053 731.386 156.041 736.952 145.202C742.665 134.362 750.722 125.06 761.122 117.296C771.522 109.386 783.754 103.307 797.816 99.059C812.025 94.8109 827.699 92.6869 844.838 92.6869C868.568 92.6869 889.076 97.0082 906.361 105.651C923.793 114.293 937.27 126.012 946.791 140.807C956.312 155.602 961.073 172.228 961.073 190.685H900.868C900.868 180.724 898.744 171.935 894.496 164.318C890.395 156.701 884.096 150.695 875.6 146.3C867.25 141.906 856.703 139.708 843.959 139.708C831.654 139.708 821.4 141.539 813.197 145.202C805.141 148.864 799.062 153.844 794.96 160.143C791.005 166.442 789.027 173.473 789.027 181.237C789.027 187.096 790.419 192.37 793.202 197.057C795.985 201.598 800.16 205.919 805.727 210.021C811.293 213.976 818.178 217.711 826.381 221.227C834.73 224.596 844.398 227.965 855.385 231.334C872.963 236.608 888.344 242.467 901.527 248.912C914.857 255.358 925.917 262.682 934.706 270.885C943.642 279.088 950.307 288.317 954.701 298.571C959.242 308.825 961.513 320.47 961.513 333.507C961.513 347.277 958.803 359.581 953.383 370.421C947.963 381.261 940.199 390.49 930.092 398.107C919.984 405.724 907.826 411.51 893.617 415.465C879.555 419.42 863.808 421.398 846.376 421.398C830.849 421.398 815.468 419.347 800.233 415.245C785.146 410.997 771.449 404.699 759.145 396.349C746.84 387.853 737.025 377.16 729.701 364.269C722.377 351.232 718.715 335.997 718.715 318.566H779.359C779.359 328.673 780.971 337.316 784.193 344.494C787.562 351.525 792.25 357.311 798.256 361.852C804.408 366.246 811.586 369.469 819.789 371.52C827.992 373.571 836.854 374.596 846.376 374.596C858.681 374.596 868.788 372.911 876.698 369.542C884.755 366.027 890.761 361.193 894.716 355.04C898.817 348.888 900.868 341.857 900.868 333.947ZM1069.61 79.5033V417.003H1011.38V79.5033H1069.61ZM1060.38 289.562H1043.24C1043.24 273.009 1045.44 257.775 1049.83 243.859C1054.23 229.943 1060.45 217.858 1068.51 207.604C1076.57 197.203 1086.16 189.147 1097.29 183.434C1108.57 177.721 1121.03 174.865 1134.65 174.865C1146.37 174.865 1156.99 176.549 1166.51 179.918C1176.18 183.141 1184.45 188.341 1191.34 195.519C1198.22 202.697 1203.5 212.072 1207.16 223.644C1210.97 235.07 1212.87 248.986 1212.87 265.392V417.003H1154.42V264.953C1154.42 253.966 1152.81 245.324 1149.59 239.025C1146.37 232.579 1141.75 227.965 1135.75 225.182C1129.89 222.399 1122.64 221.007 1113.99 221.007C1104.62 221.007 1096.56 222.838 1089.82 226.5C1083.09 230.016 1077.52 234.923 1073.12 241.222C1068.88 247.521 1065.65 254.772 1063.46 262.975C1061.41 271.178 1060.38 280.04 1060.38 289.562ZM1404.02 366.466V256.823C1404.02 248.766 1402.63 241.808 1399.85 235.949C1397.07 230.089 1392.82 225.548 1387.11 222.326C1381.39 219.103 1374.14 217.492 1365.35 217.492C1357.59 217.492 1350.78 218.81 1344.92 221.447C1339.21 224.083 1334.81 227.819 1331.73 232.653C1328.66 237.34 1327.12 242.76 1327.12 248.912H1268.89C1268.89 239.098 1271.24 229.796 1275.92 221.007C1280.61 212.072 1287.28 204.161 1295.92 197.277C1304.71 190.245 1315.18 184.752 1327.34 180.797C1339.64 176.842 1353.41 174.865 1368.65 174.865C1386.67 174.865 1402.71 177.941 1416.77 184.093C1430.98 190.099 1442.11 199.181 1450.17 211.339C1458.37 223.497 1462.47 238.805 1462.47 257.262V360.973C1462.47 372.838 1463.2 383.019 1464.67 391.515C1466.28 399.865 1468.62 407.116 1471.7 413.268V417.003H1412.59C1409.81 410.997 1407.69 403.38 1406.22 394.152C1404.76 384.777 1404.02 375.548 1404.02 366.466ZM1412.15 272.203L1412.59 306.701H1375.9C1366.82 306.701 1358.83 307.653 1351.95 309.557C1345.06 311.315 1339.42 313.952 1335.03 317.467C1330.64 320.836 1327.34 324.938 1325.14 329.772C1322.95 334.459 1321.85 339.806 1321.85 345.812C1321.85 351.671 1323.17 356.945 1325.8 361.632C1328.58 366.32 1332.54 370.055 1337.67 372.838C1342.94 375.475 1349.09 376.793 1356.12 376.793C1366.38 376.793 1375.31 374.743 1382.93 370.641C1390.55 366.393 1396.48 361.266 1400.73 355.26C1404.98 349.254 1407.25 343.541 1407.54 338.121L1424.24 363.17C1422.19 369.176 1419.11 375.548 1415.01 382.286C1410.91 389.025 1405.64 395.324 1399.19 401.183C1392.75 407.042 1384.98 411.876 1375.9 415.685C1366.82 419.494 1356.27 421.398 1344.26 421.398C1328.88 421.398 1315.11 418.322 1302.95 412.169C1290.79 406.017 1281.2 397.594 1274.17 386.901C1267.13 376.207 1263.62 364.049 1263.62 350.426C1263.62 337.828 1265.96 326.696 1270.65 317.028C1275.34 307.36 1282.3 299.23 1291.52 292.638C1300.75 285.9 1312.18 280.846 1325.8 277.477C1339.57 273.961 1355.32 272.203 1373.04 272.203H1412.15Z" fill="#222222"/>
<path d="M1581.77 227.819V417.003H1523.77V179.259H1578.7L1581.77 227.819ZM1654.06 177.721L1653.19 231.774C1649.96 231.188 1646.3 230.748 1642.2 230.455C1638.24 230.162 1634.51 230.016 1630.99 230.016C1622.06 230.016 1614.22 231.261 1607.48 233.751C1600.74 236.095 1595.1 239.537 1590.56 244.078C1586.17 248.62 1582.8 254.186 1580.46 260.778C1578.11 267.223 1576.79 274.547 1576.5 282.75L1563.98 281.212C1563.98 266.124 1565.51 252.135 1568.59 239.245C1571.67 226.354 1576.13 215.075 1581.99 205.407C1587.85 195.739 1595.18 188.268 1603.97 182.995C1612.9 177.575 1623.16 174.865 1634.73 174.865C1637.95 174.865 1641.39 175.158 1645.06 175.744C1648.86 176.183 1651.87 176.842 1654.06 177.721ZM1797.32 421.398C1779.3 421.398 1763.11 418.468 1748.76 412.609C1734.4 406.749 1722.17 398.62 1712.06 388.219C1702.1 377.672 1694.41 365.441 1688.99 351.525C1683.72 337.462 1681.08 322.374 1681.08 306.261V297.472C1681.08 279.161 1683.72 262.536 1688.99 247.594C1694.27 232.506 1701.74 219.542 1711.4 208.703C1721.07 197.863 1732.64 189.513 1746.12 183.654C1759.6 177.794 1774.47 174.865 1790.73 174.865C1807.57 174.865 1822.44 177.721 1835.33 183.434C1848.22 189 1858.99 196.911 1867.63 207.164C1876.27 217.418 1882.79 229.723 1887.19 244.078C1891.58 258.287 1893.78 274.035 1893.78 291.32V315.709H1707.45V275.719H1836.65V271.325C1836.36 262.096 1834.6 253.673 1831.38 246.056C1828.15 238.292 1823.17 232.14 1816.43 227.599C1809.7 222.911 1800.98 220.568 1790.29 220.568C1781.64 220.568 1774.1 222.472 1767.65 226.281C1761.36 229.943 1756.08 235.216 1751.83 242.101C1747.73 248.839 1744.66 256.896 1742.61 266.271C1740.55 275.646 1739.53 286.046 1739.53 297.472V306.261C1739.53 316.222 1740.85 325.451 1743.48 333.947C1746.27 342.443 1750.3 349.84 1755.57 356.139C1760.99 362.291 1767.43 367.125 1774.91 370.641C1782.52 374.01 1791.17 375.695 1800.83 375.695C1812.99 375.695 1823.98 373.351 1833.79 368.663C1843.75 363.829 1852.4 356.725 1859.72 347.35L1888.94 377.672C1883.96 384.996 1877.22 392.028 1868.73 398.766C1860.38 405.504 1850.27 410.997 1838.41 415.245C1826.54 419.347 1812.84 421.398 1797.32 421.398Z" fill="url(#paint0_radial_405_12)"/>
<path d="M235.214 6.21478C222.942 6.99642 209.537 8.79419 198.398 11.1782L195.35 11.8035L193.083 14.7738C172.799 40.9978 159.706 86.6066 154.352 149.646C152.437 171.923 151.89 187.243 151.929 214.913C151.968 227.693 152.124 239.261 152.28 240.551L152.554 242.935L174.987 204.087L197.421 165.201L200.782 163.051C238.809 138.429 284.536 114.355 320.61 99.9336C359.653 84.3008 391.896 76.8752 418.238 77.3832C422.029 77.4614 425.156 77.4614 425.117 77.3442C425.038 76.9143 414.916 67.7691 409.913 63.5873C387.871 45.2578 362.35 30.602 335.266 20.7533C314.982 13.4059 294.62 8.87236 272.147 6.76193C264.643 6.09753 242.601 5.74579 235.214 6.21478Z" fill="#EF4444"/>
<path d="M175.81 17.0405C136.766 29.2732 101.474 50.6902 72.7095 79.65C45.8988 106.617 26.162 138.312 13.382 174.893L11.2324 181.068L12.4831 184.195C20.7295 205.064 40.2318 229.295 68.3322 253.526C98.934 279.868 138.798 306.443 186.909 332.511C188.941 333.644 189.918 333.996 189.762 333.566C189.528 332.941 149.702 263.844 146.693 258.88C145.794 257.356 145.052 255.871 145.052 255.558C145.052 255.246 144.817 248.797 144.543 241.294C144.192 232.109 144.114 220.111 144.27 204.752C144.504 182.201 144.739 174.932 145.911 158.049C150.328 95.2438 162.912 45.844 181.711 17.4314C182.571 16.1807 183.235 15.0864 183.235 14.9692C183.235 14.6956 182.962 14.7738 175.81 17.0405Z" fill="#EF4444"/>
<path d="M405.42 85.3953C404.795 85.4734 402.332 85.747 399.948 85.9815C360.709 89.8506 303.649 111.971 241.703 147.262C233.3 152.069 215.4 162.778 213.211 164.302C212.469 164.81 217.237 164.888 257.258 164.888H302.164L309.433 168.679C337.846 183.413 371.027 203.423 395.454 220.541C442.588 253.526 474.674 285.378 489.76 314.104C491.011 316.527 492.144 318.481 492.184 318.403C492.496 318.129 494.372 310 495.466 304.411C496.991 296.556 498.437 286.473 499.297 277.64C500.235 267.83 500.235 244.186 499.297 234.259C496.131 201.313 488.08 172.861 473.971 144.566C465.725 128.073 456.618 113.73 445.675 100.129C440.946 94.2278 434.732 87.0367 433.95 86.6459C432.622 85.8643 422.968 85.1608 414.995 85.1999C410.383 85.2389 406.084 85.3562 405.42 85.3953Z" fill="#EF4444"/>
<path d="M310.371 178.254C310.488 178.606 320.572 196.154 332.765 217.258C350.587 248.133 354.964 255.988 355.082 257.278C355.981 268.768 356.293 309.765 355.59 327.665C353.44 383.318 346.562 427.168 334.68 460.544C330.03 473.558 323.933 486.26 318.383 494.467C317.523 495.718 316.898 496.812 316.976 496.89C317.015 496.968 320.337 495.991 324.324 494.78C384.667 476.138 436.139 434.672 467.679 379.253C474.753 366.825 482.178 350.372 487.103 336.068L488.901 330.831L487.65 327.665C486.009 323.444 481.358 314.494 478.27 309.57C466.584 290.81 445.832 269.237 418.708 247.547C392.679 226.755 359.693 205.064 323.737 185.133C310.801 177.98 310.097 177.629 310.371 178.254Z" fill="#EF4444"/>
<path d="M6.62 198.381C-1.47012 232.031 -2.1736 269.393 4.66586 304.411C12.756 345.955 31.9456 385.663 59.4989 417.866C61.8829 420.641 64.267 423.416 64.8141 424.08C66.6119 426.152 73.8813 426.933 87.8338 426.621C105.46 426.191 122.266 423.103 145.481 415.912C184.251 403.953 233.339 380.465 282.231 350.489L287.585 347.206L242.562 347.01L197.5 346.815L191.247 343.532C99.9885 295.618 33.7043 242.231 10.411 197.834C9.12129 195.411 8.02698 193.418 7.94881 193.418C7.87064 193.418 7.2844 195.646 6.62 198.381Z" fill="#EF4444"/>
<path d="M325.105 307.85L302.633 346.737L297.239 350.215C272.187 366.278 240.882 383.787 214.345 396.488C160.606 422.283 115.895 435.141 82.089 434.515C78.1807 434.437 74.9759 434.437 75.015 434.554C75.0541 434.906 84.8638 443.778 89.1629 447.412C147.24 496.226 223.295 515.806 298.412 501.346L304.743 500.134L307.049 497.125C323.62 475.669 335.462 441.198 342.106 394.886C344.959 374.798 346.679 355.53 347.812 330.205C348.242 319.731 348.32 275.178 347.851 271.348L347.578 268.925L325.105 307.85Z" fill="#EF4444"/>
<defs>
<radialGradient id="paint0_radial_405_12" cx="0" cy="0" r="1" gradientUnits="userSpaceOnUse" gradientTransform="translate(1242 263.503) rotate(90) scale(263.5 665)">
<stop stop-color="#222222"/>
<stop offset="1" stop-color="#222222" stop-opacity="0"/>
</radialGradient>
</defs>
</svg>
