<svg width="1907" height="527" viewBox="0 0 1907 527" fill="none" xmlns="http://www.w3.org/2000/svg">
<path d="M664.671 179.256V417H606.443V179.256H664.671ZM602.488 117.073C602.488 108.431 605.418 101.253 611.277 95.54C617.283 89.8271 625.34 86.9707 635.447 86.9707C645.555 86.9707 653.538 89.8271 659.397 95.54C665.403 101.253 668.406 108.431 668.406 117.073C668.406 125.569 665.403 132.674 659.397 138.387C653.538 144.1 645.555 146.956 635.447 146.956C625.34 146.956 617.283 144.1 611.277 138.387C605.418 132.674 602.488 125.569 602.488 117.073ZM900.868 333.943C900.868 327.791 899.916 322.298 898.012 317.464C896.254 312.483 892.958 308.016 888.124 304.061C883.437 299.959 876.771 296.004 868.129 292.195C859.633 288.24 848.646 284.139 835.17 279.891C820.229 275.203 806.312 269.93 793.422 264.07C780.531 258.211 769.179 251.399 759.364 243.636C749.696 235.872 742.152 226.937 736.732 216.829C731.312 206.575 728.603 194.71 728.603 181.233C728.603 168.05 731.386 156.038 736.952 145.198C742.665 134.358 750.722 125.057 761.122 117.293C771.522 109.383 783.754 103.304 797.816 99.0557C812.025 94.8076 827.699 92.6836 844.838 92.6836C868.568 92.6836 889.076 97.0049 906.361 105.647C923.793 114.29 937.27 126.009 946.791 140.804C956.312 155.599 961.073 172.225 961.073 190.682H900.868C900.868 180.721 898.744 171.932 894.496 164.314C890.395 156.697 884.096 150.691 875.6 146.297C867.25 141.902 856.703 139.705 843.959 139.705C831.654 139.705 821.4 141.536 813.197 145.198C805.141 148.86 799.062 153.841 794.96 160.14C791.005 166.438 789.027 173.47 789.027 181.233C789.027 187.093 790.419 192.366 793.202 197.054C795.985 201.595 800.16 205.916 805.727 210.018C811.293 213.973 818.178 217.708 826.381 221.224C834.73 224.593 844.398 227.962 855.385 231.331C872.963 236.604 888.344 242.464 901.527 248.909C914.857 255.354 925.917 262.679 934.706 270.882C943.642 279.085 950.307 288.313 954.701 298.567C959.242 308.821 961.513 320.467 961.513 333.504C961.513 347.273 958.803 359.578 953.383 370.418C947.963 381.258 940.199 390.486 930.092 398.104C919.984 405.721 907.826 411.507 893.617 415.462C879.555 419.417 863.808 421.395 846.376 421.395C830.849 421.395 815.468 419.344 800.233 415.242C785.146 410.994 771.449 404.695 759.145 396.346C746.84 387.85 737.025 377.156 729.701 364.266C722.377 351.229 718.715 335.994 718.715 318.562H779.359C779.359 328.67 780.971 337.312 784.193 344.49C787.562 351.521 792.25 357.308 798.256 361.849C804.408 366.243 811.586 369.466 819.789 371.517C827.992 373.567 836.854 374.593 846.376 374.593C858.681 374.593 868.788 372.908 876.698 369.539C884.755 366.023 890.761 361.189 894.716 355.037C898.817 348.885 900.868 341.854 900.868 333.943ZM1069.61 79.5V417H1011.38V79.5H1069.61ZM1060.38 289.559H1043.24C1043.24 273.006 1045.44 257.771 1049.83 243.855C1054.23 229.939 1060.45 217.854 1068.51 207.601C1076.57 197.2 1086.16 189.144 1097.29 183.431C1108.57 177.718 1121.03 174.861 1134.65 174.861C1146.37 174.861 1156.99 176.546 1166.51 179.915C1176.18 183.138 1184.45 188.338 1191.34 195.516C1198.22 202.693 1203.5 212.068 1207.16 223.641C1210.97 235.066 1212.87 248.982 1212.87 265.389V417H1154.42V264.949C1154.42 253.963 1152.81 245.32 1149.59 239.021C1146.37 232.576 1141.75 227.962 1135.75 225.179C1129.89 222.396 1122.64 221.004 1113.99 221.004C1104.62 221.004 1096.56 222.835 1089.82 226.497C1083.09 230.013 1077.52 234.92 1073.12 241.219C1068.88 247.518 1065.65 254.769 1063.46 262.972C1061.41 271.175 1060.38 280.037 1060.38 289.559ZM1404.02 366.463V256.819C1404.02 248.763 1402.63 241.805 1399.85 235.945C1397.07 230.086 1392.82 225.545 1387.11 222.322C1381.39 219.1 1374.14 217.488 1365.35 217.488C1357.59 217.488 1350.78 218.807 1344.92 221.443C1339.21 224.08 1334.81 227.815 1331.73 232.649C1328.66 237.337 1327.12 242.757 1327.12 248.909H1268.89C1268.89 239.095 1271.24 229.793 1275.92 221.004C1280.61 212.068 1287.28 204.158 1295.92 197.273C1304.71 190.242 1315.18 184.749 1327.34 180.794C1339.64 176.839 1353.41 174.861 1368.65 174.861C1386.67 174.861 1402.71 177.938 1416.77 184.09C1430.98 190.096 1442.11 199.178 1450.17 211.336C1458.37 223.494 1462.47 238.802 1462.47 257.259V360.97C1462.47 372.835 1463.2 383.016 1464.67 391.512C1466.28 399.861 1468.62 407.112 1471.7 413.265V417H1412.59C1409.81 410.994 1407.69 403.377 1406.22 394.148C1404.76 384.773 1404.02 375.545 1404.02 366.463ZM1412.15 272.2L1412.59 306.697H1375.9C1366.82 306.697 1358.83 307.649 1351.95 309.554C1345.06 311.312 1339.42 313.948 1335.03 317.464C1330.64 320.833 1327.34 324.935 1325.14 329.769C1322.95 334.456 1321.85 339.803 1321.85 345.809C1321.85 351.668 1323.17 356.941 1325.8 361.629C1328.58 366.316 1332.54 370.052 1337.67 372.835C1342.94 375.472 1349.09 376.79 1356.12 376.79C1366.38 376.79 1375.31 374.739 1382.93 370.638C1390.55 366.39 1396.48 361.263 1400.73 355.257C1404.98 349.251 1407.25 343.538 1407.54 338.118L1424.24 363.167C1422.19 369.173 1419.11 375.545 1415.01 382.283C1410.91 389.021 1405.64 395.32 1399.19 401.18C1392.75 407.039 1384.98 411.873 1375.9 415.682C1366.82 419.49 1356.27 421.395 1344.26 421.395C1328.88 421.395 1315.11 418.318 1302.95 412.166C1290.79 406.014 1281.2 397.591 1274.17 386.897C1267.13 376.204 1263.62 364.046 1263.62 350.423C1263.62 337.825 1265.96 326.692 1270.65 317.024C1275.34 307.356 1282.3 299.227 1291.52 292.635C1300.75 285.896 1312.18 280.843 1325.8 277.474C1339.57 273.958 1355.32 272.2 1373.04 272.2H1412.15ZM1581.77 227.815V417H1523.77V179.256H1578.7L1581.77 227.815ZM1654.06 177.718L1653.19 231.771C1649.96 231.185 1646.3 230.745 1642.2 230.452C1638.24 230.159 1634.51 230.013 1630.99 230.013C1622.06 230.013 1614.22 231.258 1607.48 233.748C1600.74 236.092 1595.1 239.534 1590.56 244.075C1586.17 248.616 1582.8 254.183 1580.46 260.774C1578.11 267.22 1576.79 274.544 1576.5 282.747L1563.98 281.209C1563.98 266.121 1565.51 252.132 1568.59 239.241C1571.67 226.351 1576.13 215.071 1581.99 205.403C1587.85 195.735 1595.18 188.265 1603.97 182.991C1612.9 177.571 1623.16 174.861 1634.73 174.861C1637.95 174.861 1641.39 175.154 1645.06 175.74C1648.86 176.18 1651.87 176.839 1654.06 177.718ZM1797.32 421.395C1779.3 421.395 1763.11 418.465 1748.76 412.605C1734.4 406.746 1722.17 398.616 1712.06 388.216C1702.1 377.669 1694.41 365.438 1688.99 351.521C1683.72 337.459 1681.08 322.371 1681.08 306.258V297.469C1681.08 279.158 1683.72 262.532 1688.99 247.591C1694.27 232.503 1701.74 219.539 1711.4 208.699C1721.07 197.859 1732.64 189.51 1746.12 183.65C1759.6 177.791 1774.47 174.861 1790.73 174.861C1807.57 174.861 1822.44 177.718 1835.33 183.431C1848.22 188.997 1858.99 196.907 1867.63 207.161C1876.27 217.415 1882.79 229.72 1887.19 244.075C1891.58 258.284 1893.78 274.031 1893.78 291.316V315.706H1707.45V275.716H1836.65V271.321C1836.36 262.093 1834.6 253.67 1831.38 246.053C1828.15 238.289 1823.17 232.137 1816.43 227.596C1809.7 222.908 1800.98 220.564 1790.29 220.564C1781.64 220.564 1774.1 222.469 1767.65 226.277C1761.36 229.939 1756.08 235.213 1751.83 242.098C1747.73 248.836 1744.66 256.893 1742.61 266.268C1740.55 275.643 1739.53 286.043 1739.53 297.469V306.258C1739.53 316.219 1740.85 325.447 1743.48 333.943C1746.27 342.439 1750.3 349.837 1755.57 356.136C1760.99 362.288 1767.43 367.122 1774.91 370.638C1782.52 374.007 1791.17 375.691 1800.83 375.691C1812.99 375.691 1823.98 373.348 1833.79 368.66C1843.75 363.826 1852.4 356.722 1859.72 347.347L1888.94 377.669C1883.96 384.993 1877.22 392.024 1868.73 398.763C1860.38 405.501 1850.27 410.994 1838.41 415.242C1826.54 419.344 1812.84 421.395 1797.32 421.395Z" fill="#FAFAFA"/>
<path d="M235.214 6.21148C222.942 6.99312 209.537 8.7909 198.398 11.1749L195.35 11.8002L193.083 14.7705C172.799 40.9945 159.706 86.6033 154.352 149.643C152.437 171.92 151.89 187.24 151.929 214.91C151.968 227.69 152.124 239.258 152.28 240.548L152.554 242.932L174.987 204.084L197.421 165.197L200.782 163.048C238.809 138.426 284.536 114.352 320.61 99.9303C359.653 84.2975 391.896 76.8719 418.238 77.3799C422.029 77.4581 425.156 77.4581 425.117 77.3409C425.038 76.911 414.916 67.7658 409.913 63.584C387.871 45.2545 362.35 30.5987 335.266 20.75C314.982 13.4026 294.62 8.86906 272.147 6.75863C264.643 6.09424 242.601 5.7425 235.214 6.21148Z" fill="#EF4444"/>
<path d="M175.81 17.0373C136.766 29.27 101.474 50.687 72.7095 79.6468C45.8988 106.613 26.162 138.309 13.382 174.89L11.2324 181.065L12.4831 184.191C20.7295 205.061 40.2318 229.292 68.3322 253.523C98.934 279.864 138.798 306.44 186.909 332.508C188.941 333.641 189.918 333.993 189.762 333.563C189.528 332.938 149.702 263.841 146.693 258.877C145.794 257.353 145.052 255.868 145.052 255.555C145.052 255.243 144.817 248.794 144.543 241.29C144.192 232.106 144.114 220.108 144.27 204.749C144.504 182.198 144.739 174.929 145.911 158.045C150.328 95.2406 162.912 45.8408 181.711 17.4281C182.571 16.1775 183.235 15.0832 183.235 14.966C183.235 14.6924 182.962 14.7706 175.81 17.0373Z" fill="#EF4444"/>
<path d="M405.42 85.3919C404.795 85.4701 402.332 85.7437 399.948 85.9781C360.709 89.8473 303.649 111.968 241.703 147.259C233.3 152.066 215.4 162.774 213.211 164.299C212.469 164.807 217.237 164.885 257.258 164.885H302.164L309.433 168.676C337.846 183.41 371.027 203.42 395.454 220.538C442.588 253.523 474.674 285.375 489.76 314.1C491.011 316.523 492.144 318.477 492.184 318.399C492.496 318.126 494.372 309.997 495.466 304.408C496.991 296.552 498.437 286.469 499.297 277.637C500.235 267.827 500.235 244.182 499.297 234.256C496.131 201.309 488.08 172.858 473.971 144.562C465.725 128.07 456.618 113.726 445.675 100.126C440.946 94.2245 434.732 87.0334 433.95 86.6425C432.622 85.8609 422.968 85.1574 414.995 85.1965C410.383 85.2356 406.084 85.3528 405.42 85.3919Z" fill="#EF4444"/>
<path d="M310.371 178.251C310.488 178.603 320.572 196.15 332.765 217.255C350.587 248.13 354.964 255.985 355.082 257.275C355.981 268.765 356.293 309.762 355.59 327.662C353.44 383.314 346.562 427.165 334.68 460.541C330.03 473.555 323.933 486.257 318.383 494.464C317.523 495.715 316.898 496.809 316.976 496.887C317.015 496.965 320.337 495.988 324.324 494.777C384.667 476.134 436.139 434.668 467.679 379.25C474.753 366.822 482.178 350.368 487.103 336.064L488.901 330.827L487.65 327.662C486.009 323.441 481.358 314.491 478.27 309.567C466.584 290.807 445.832 269.234 418.708 247.543C392.679 226.752 359.693 205.061 323.737 185.129C310.801 177.977 310.097 177.625 310.371 178.251Z" fill="#EF4444"/>
<path d="M6.62 198.378C-1.47012 232.028 -2.1736 269.39 4.66586 304.408C12.756 345.952 31.9456 385.659 59.4989 417.863C61.8829 420.638 64.267 423.413 64.8141 424.077C66.6119 426.148 73.8813 426.93 87.8338 426.617C105.46 426.187 122.266 423.1 145.481 415.909C184.251 403.95 233.339 380.461 282.231 350.486L287.585 347.203L242.562 347.007L197.5 346.812L191.247 343.529C99.9885 295.614 33.7043 242.228 10.411 197.831C9.12129 195.408 8.02698 193.415 7.94881 193.415C7.87064 193.415 7.2844 195.642 6.62 198.378Z" fill="#EF4444"/>
<path d="M325.105 307.847L302.633 346.734L297.239 350.212C272.187 366.275 240.882 383.784 214.345 396.485C160.606 422.279 115.895 435.137 82.089 434.512C78.1807 434.434 74.9759 434.434 75.015 434.551C75.0541 434.903 84.8638 443.774 89.1629 447.409C147.24 496.223 223.295 515.803 298.412 501.342L304.743 500.131L307.049 497.122C323.62 475.665 335.462 441.195 342.106 394.883C344.959 374.795 346.679 355.527 347.812 330.202C348.242 319.728 348.32 275.174 347.851 271.344L347.578 268.921L325.105 307.847Z" fill="#EF4444"/>
</svg>
